PathFileType	4	(X/Y/Z)	Patient4_TMGait_0pt3_01_right_18.trc.trc
DataRate	CameraRate	NumFrames	NumMarkers	Units	OrigDataRate	OrigDataStartFrame	OrigNumFrames
51.282051282051	51.282051282051	6	33	mm	51.282051282051	36	       141
Frame#	Time	Sacral			L.Shoulder			Chest			R.Shoulder			Neck			R.ASIS			L.ASIS			R.Thigh.Superior			R.Thigh.Lateral			R.Thigh.Inferior			R.Patella			L.Thigh.Superior			L.Thigh.Lateral			L.Thigh.Inferior			L.Patella			L.Shank.Superior			L.Shank.Lateral			L.Shank.Inferior			R.Shank.Superior			R.Shank.Lateral			R.Shank.Inferior			R.Heel			R.Midfoot.Superior			R.Midfoot.Lateral			R.Toe			L.Heel			L.Midfoot.Lateral			L.Midfoot.Superior			L.Toe			L.Elbow			L.Wrist			R.Elbow			R.Wrist			
		X1	Y1	Z1	X2	Y2	Z2	X3	Y3	Z3	X4	Y4	Z4	X5	Y5	Z5	X6	Y6	Z6	X7	Y7	Z7	X8	Y8	Z8	X9	Y9	Z9	X10	Y10	Z10	X11	Y11	Z11	X12	Y12	Z12	X13	Y13	Z13	X14	Y14	Z14	X15	Y15	Z15	X16	Y16	Z16	X17	Y17	Z17	X18	Y18	Z18	X19	Y19	Z19	X20	Y20	Z20	X21	Y21	Z21	X22	Y22	Z22	X23	Y23	Z23	X24	Y24	Z24	X25	Y25	Z25	X26	Y26	Z26	X27	Y27	Z27	X28	Y28	Z28	X29	Y29	Z29	X30	Y30	Z30	X31	Y31	Z31	X32	Y32	Z32	X33	Y33	Z33	

36	33.252500000000	779.599057838683	999.171615280524	526.152430279414	995.973826073408	1437.764581308152	402.376426893031	1052.007729690711	1362.331019856585	581.711092796822	926.236685875402	1432.399077210677	729.509845639804	944.261841227207	1493.208465907165	555.319864907230	987.567740851152	941.997801477466	685.467563920972	1019.911007874677	959.192352168071	412.997008832274	1052.391058144370	750.137755317907	655.485564988591	976.093066053407	632.308314803313	703.880196333602	1065.915124636933	589.337417623366	630.941419645816	1075.053276365770	500.935640998079	636.624725115770	1037.858531068364	731.156176730242	439.141458153655	943.981479252498	623.157405526545	364.874053544146	1011.987161625535	534.274863213186	434.247000806609	999.695011078060	454.015039752787	432.577462001894	939.292163195349	396.782612181196	420.612042775257	811.360969298665	333.269304442971	362.144032723549	809.402903815510	205.760987161085	421.334445311825	1050.350459072094	409.788822896389	640.834364644513	980.025639063404	302.434445203944	697.198562942614	1030.762120268870	209.804836400307	637.224629608452	904.515948892830	42.892663131375	601.811981308729	1075.400929055984	98.400363286210	641.412306781949	986.726777251339	36.596850622237	677.480895719620	1194.684018469284	48.514235929993	669.610299643370	629.565366108142	103.993891193020	449.303507506424	700.617538425817	74.753308740845	373.421466321584	797.967736603811	108.228773702602	400.977878783244	901.731448273528	34.960562373331	379.328009813390	1132.374867261345	1137.218529988556	255.091104461589	1388.208533228229	1150.454919817557	293.585330303819	782.253428487510	1106.639348167342	797.518269468564	803.870504175980	846.386108764294	813.895697702728	
37	33.272000000000	780.470599927245	1000.084876988756	531.652831580753	994.980270454215	1438.780586320493	405.371544182283	1053.245280509337	1363.468284441901	584.082533527857	929.029758452299	1433.207941032620	733.322342925898	944.907284481134	1494.181736675191	558.815456173607	989.988199809797	942.721217664808	688.918474292554	1019.727416965282	960.166677647103	416.372497227260	1052.438307913560	749.316939694716	658.435760270044	974.851559071844	632.272256609870	706.599725065489	1063.647202636285	588.541938790886	632.995107914071	1071.663521509562	500.253313707092	638.003312373871	1042.784783223817	733.771475628187	442.631954686257	952.713575081464	623.806438559936	368.047532136883	1023.709419538415	536.096874015523	437.059572655445	1012.377403522029	454.446851030246	434.094134870084	949.660561163589	397.822625127563	422.156785250182	819.170898081459	339.447437398839	364.204812568339	813.689696407704	211.279657995602	421.463460559162	1046.676844227919	409.337837739676	641.984526607825	976.218723150412	302.109482366265	698.215275181610	1025.975656758885	209.447943730073	637.491922467297	898.904858603614	42.911687832505	601.896236990028	1069.742614919120	98.253076621820	641.363647871934	981.103052517018	36.618710567404	677.518330294547	1189.145721253274	48.069734847871	669.746465391500	630.469378909312	118.602340960590	449.410391518750	699.258023441027	84.687413548033	373.547478914321	798.391393656580	111.933529772686	400.583608101638	896.089822339336	33.899649515913	379.529884358787	1124.296444526289	1132.996208962851	259.894288158241	1381.270109198997	1138.873255951773	295.678406066144	788.742992785371	1106.131900974155	805.195583013389	815.490629621697	846.579697372728	822.577694013514	
38	33.291500000000	781.194378014959	1000.765533977083	537.232057339784	993.601271499155	1439.569452849855	408.040850699553	1054.217682147876	1364.470869157216	586.093265749619	931.666170819215	1433.890455955142	736.829446189762	945.288334890456	1495.001475551388	561.977419565271	992.304669715265	943.330978377775	692.231419364394	1019.273820857487	960.994819256093	419.599713719998	1052.447155676698	748.472529118283	661.198902990454	973.683343233638	632.152157205447	709.223064836155	1061.434788372730	587.707046697512	634.939642199235	1068.343015639417	499.505760830445	639.310724013263	1047.936911118037	736.622083311232	446.184865066664	962.075090514439	624.617029495558	371.189036893863	1036.005981633415	538.340386270400	440.062723121037	1025.761001625348	455.334689039109	435.893526126580	960.902231837370	399.148513750342	423.883278529790	828.069617238063	345.995982542183	366.305294714098	818.859733146741	217.352048675139	421.778375795563	1043.057578795714	408.828431989933	643.061920263809	972.469427022858	301.740895586933	699.212301777330	1021.211136386381	209.058372536029	637.713768393137	893.259613991348	42.953649821665	601.952415578943	1064.062176869810	98.095149944680	641.306367254796	975.436141220942	36.648921889924	677.538761508277	1183.567572059886	47.554562432019	669.895526212372	632.553883311614	134.327922182001	449.659866938751	698.801751798356	95.770160177362	373.775021500188	799.478609108840	116.324365339153	400.386660224380	890.632033722871	32.750782955605	379.733896346878	1114.988726712611	1128.279048605039	264.634804058434	1372.886392682186	1125.351007957464	297.621562293022	795.627473008382	1105.392551219666	812.809559433823	827.417124882060	846.586485315224	831.131866647702	
39	33.311000000000	781.758370188934	1001.191387984735	542.855021681783	991.864595348915	1440.085334944374	410.388956550594	1054.923802621836	1365.293083175484	587.752121392285	934.138952223293	1434.427687294516	740.017752189446	945.419865482150	1495.634846020936	564.796544233787	994.505458483007	943.806206889857	695.396658272318	1018.559507995156	961.652797284382	422.657716276289	1052.505205618642	747.642623478975	663.754596923264	972.723532740525	631.944114546537	711.723243174887	1059.440460737072	586.858107084190	636.756057432731	1065.301518704191	498.682997379713	640.540885821938	1053.195818455652	739.686764830418	449.778082626457	971.824359445129	625.625356964492	374.325412689728	1048.573233109118	541.014783203917	443.283897488637	1039.547129148746	456.704053423184	438.042525429568	972.747031648695	400.779269800118	425.850614161386	837.819975239646	352.806588470056	368.490879243921	824.797475891300	223.854970686487	422.351326864536	1039.641742382654	408.246339704257	644.052515435052	968.869408849175	301.343740824769	700.171221923802	1016.523420516133	208.631437582442	637.883829512290	887.566398056630	43.018977927531	601.983047233508	1058.359389770986	97.938820914139	641.246603719512	969.716517883736	36.690823333646	677.545694491039	1177.937092195182	46.991637927339	670.044276419988	635.792845509242	150.677363398606	450.138204198900	699.319150300302	107.705631186049	374.160762655244	801.246194548778	121.362282648262	400.436218160224	885.605427871896	31.615607108003	379.895161432163	1104.620657843228	1123.166960837870	269.301637415987	1362.980542509332	1109.727265073774	299.455226951067	803.009485795452	1104.365118104172	820.265730422605	839.732351587101	846.329965618123	839.522505173883	
40	33.330500000000	782.145128515396	1001.350119116851	548.471293483675	989.798439318293	1440.292886639943	412.425224751397	1055.369032010269	1365.894173569116	589.069585006870	936.454991156809	1434.803540626734	742.882121848575	945.321828033006	1496.054917193082	567.273152160206	996.573591549846	944.128889432821	698.404007412115	1017.598682927375	962.127041141006	425.525973103860	1052.685777331499	746.851742444045	666.091996472737	972.080875057471	631.634618349734	714.068663510805	1057.803192753426	586.009997666354	638.421698695542	1062.725082594499	497.771018445948	641.676797741880	1058.422681304726	742.933802663211	453.385849687092	981.693816525305	626.850899415987	377.478998035673	1061.099149715951	544.102779297748	446.728145524883	1053.424858771301	458.552173364935	440.572677521240	984.905546688315	402.714630770672	428.092352897394	848.146338377159	359.730319061503	370.814826248664	831.386992527356	230.602942358638	423.239772637872	1036.559475434601	407.574277289791	644.936134982093	965.498370989786	300.928446134708	701.064707069479	1011.962035220201	208.162172713921	637.994425453640	881.822345801728	43.104479012528	601.993784181641	1052.639652237999	97.797069847657	641.190615791459	963.946288930987	36.745947989543	677.544477912816	1172.251522132326	46.411384334288	670.182277232499	640.128078343541	167.000668890493	450.940445403696	700.880044844989	120.055805333954	374.763388998500	803.748279002477	126.930299216491	400.762723986073	881.360968861011	30.639178167175	379.957369960535	1093.412352567836	1117.774818661099	273.890114562729	1351.455151958039	1091.895730678788	301.215242077807	810.971743619992	1103.019762168796	827.477068639803	852.540824047138	845.771916653004	847.719338250142	
41	33.350000000000	782.335983987216	1001.235748816347	554.023346034162	987.433395744844	1440.165202052760	414.162428816348	1055.565272663164	1366.238960917188	590.057973277827	938.631293708527	1435.004499344089	745.423287658438	945.017974678282	1496.239434181753	569.414891577107	998.488858761862	944.282066870304	701.244940513019	1016.410481365298	962.412774854709	428.187475699615	1053.042613662277	746.108467727589	668.206506860676	971.833933966213	631.201811784973	716.227079185792	1056.630277569140	585.165915943086	639.911792365089	1060.761556789291	496.752537392409	642.693024094853	1063.465814991149	746.315164505662	456.981274726697	991.410114084201	628.289323211950	380.662019395555	1073.283031794575	547.557097823139	450.375597020762	1067.090757649757	460.846603176569	443.474187411581	997.094101889380	404.929431193469	430.609370041680	858.762012146181	366.574693578841	373.327534938086	838.532001668033	237.348380721894	424.477601401691	1033.912894661069	406.791829465928	645.689310328553	962.419456798749	300.498815494041	701.862403081950	1007.566730472956	207.643478295532	638.037034756376	876.032017338049	43.204891595161	601.991129794469	1046.911201613567	97.680132659432	641.142297793391	958.134824154394	36.814474264528	677.541344601907	1166.515322073334	45.843763038889	670.302244019464	645.486948998886	182.521006809315	452.154380145604	703.563941537870	132.258059412445	375.632731415696	807.088083028876	132.829403050907	401.372602549366	878.354897676492	29.991652831822	379.857712193927	1081.616043710298	1112.214699163706	278.402701908059	1338.181736081066	1071.835953685481	302.926458801211	819.564095949906	1101.354852261137	834.367820793920	865.972644019954	844.922459018124	855.692379292687	
